<svg xmlns="http://www.w3.org/2000/svg" width="1024" height="1024" viewBox="0 0 1024 1024">
<defs>
 <linearGradient id="body" x2=".25" y2="1"><stop stop-color="#505459"/><stop offset=".35" stop-color="#303438"/><stop offset="1" stop-color="#1c2024"/></linearGradient>
 <linearGradient id="edge" x2=".3" y2="1"><stop stop-color="#a0a3a5"/><stop offset=".5" stop-color="#52585d"/><stop offset="1" stop-color="#101418"/></linearGradient>
 <linearGradient id="rib" x2="0" y2="1"><stop stop-color="#e6eaed" stop-opacity=".27"/><stop offset=".25" stop-color="#858d94" stop-opacity=".08"/><stop offset=".65" stop-color="#000" stop-opacity=".05"/><stop offset="1" stop-color="#000" stop-opacity=".42"/></linearGradient>
 <radialGradient id="screw" cx=".35" cy=".25"><stop stop-color="#53595e"/><stop offset=".35" stop-color="#20262b"/><stop offset="1" stop-color="#080b0e"/></radialGradient>
 <filter id="shadow" x="-.15" y="-.15" width="1.3" height="1.4"><feGaussianBlur stdDeviation="9"/></filter>
 <clipPath id="surface"><rect x="112" y="112" width="800" height="800" rx="174"/></clipPath>
</defs>
<rect x="104" y="120" width="816" height="812" rx="184" fill="#000" opacity=".22" filter="url(#shadow)"/>
<rect x="100" y="100" width="824" height="824" rx="184" fill="url(#edge)"/>
<rect x="106" y="106" width="812" height="812" rx="180" fill="url(#body)"/>
<g clip-path="url(#surface)">
<rect x="110" y="124" width="804" height="60" fill="url(#rib)"/>
<rect x="110" y="184" width="804" height="60" fill="url(#rib)"/>
<rect x="110" y="244" width="804" height="60" fill="url(#rib)"/>
<rect x="110" y="304" width="804" height="60" fill="url(#rib)"/>
<rect x="110" y="364" width="804" height="60" fill="url(#rib)"/>
<rect x="110" y="424" width="804" height="60" fill="url(#rib)"/>
<rect x="110" y="484" width="804" height="60" fill="url(#rib)"/>
<rect x="110" y="544" width="804" height="60" fill="url(#rib)"/>
<rect x="110" y="604" width="804" height="60" fill="url(#rib)"/>
<rect x="110" y="664" width="804" height="60" fill="url(#rib)"/>
<rect x="110" y="724" width="804" height="60" fill="url(#rib)"/>
<rect x="110" y="784" width="804" height="60" fill="url(#rib)"/>
<rect x="110" y="844" width="804" height="60" fill="url(#rib)"/>
<rect x="110" y="904" width="804" height="60" fill="url(#rib)"/>

</g>
<rect x="112" y="112" width="800" height="800" rx="174" fill="none" stroke="#dfe6ea" stroke-opacity=".17" stroke-width="3"/>
<circle cx="210" cy="212" r="35" fill="#000" opacity=".28"/>
 <circle cx="210" cy="210" r="31" fill="url(#screw)" stroke="#81888d" stroke-width="3"/>
 <path d="M201 205 L210 200 L219 205 L219 215 L210 220 L201 215Z" fill="#080b0e" stroke="#4e565c" stroke-width="2"/>
<circle cx="814" cy="212" r="35" fill="#000" opacity=".28"/>
 <circle cx="814" cy="210" r="31" fill="url(#screw)" stroke="#81888d" stroke-width="3"/>
 <path d="M805 205 L814 200 L823 205 L823 215 L814 220 L805 215Z" fill="#080b0e" stroke="#4e565c" stroke-width="2"/>
<circle cx="210" cy="816" r="35" fill="#000" opacity=".28"/>
 <circle cx="210" cy="814" r="31" fill="url(#screw)" stroke="#81888d" stroke-width="3"/>
 <path d="M201 809 L210 804 L219 809 L219 819 L210 824 L201 819Z" fill="#080b0e" stroke="#4e565c" stroke-width="2"/>
<circle cx="814" cy="816" r="35" fill="#000" opacity=".28"/>
 <circle cx="814" cy="814" r="31" fill="url(#screw)" stroke="#81888d" stroke-width="3"/>
 <path d="M805 809 L814 804 L823 809 L823 819 L814 824 L805 819Z" fill="#080b0e" stroke="#4e565c" stroke-width="2"/>
</svg>
